<svg width="28" height="25" fill="none" xmlns="http://www.w3.org/2000/svg"><g clip-path="url(#clip0)"><path d="M13.21 19.5c8.2 0 13.017-3.175 13.017-3.175L26.224 21s-4.672 3.895-13.01 3.895h-.004C4.87 24.895.2 21 .2 21l-.004-4.675S5.01 19.5 13.21 19.5z" fill="#FF4646"/><path d="M20.938.027a6.892 6.892 0 1 0 0 13.784 6.892 6.892 0 0 0 0-13.784zm0 9.46c-1.381 0-2.498-1.187-2.498-2.568 0-1.38 1.12-2.567 2.498-2.567 1.377 0 2.497 1.186 2.497 2.567.004 1.381-1.116 2.567-2.497 2.567zM5.73.377H.168v13.11h5.63c4.103 0 6.96-2.934 6.96-6.555v-.168C12.762 3.143 9.778.377 5.732.377zm2.726 6.555c0 1.332-.935 2.379-2.51 2.425-.827.027-1.57 0-1.57 0v-4.85s.664-.026 1.57 0c1.608.046 2.51 1.094 2.51 2.425z" fill="#000200"/></g><defs><clipPath id="clip0"><path fill="#fff" d="M0 0h28v24.927H0z"/></clipPath></defs></svg>